<svg width="299" height="162" viewBox="0 0 299 162" fill="none" xmlns="http://www.w3.org/2000/svg">
<rect width="295" height="162" rx="24" fill="white"/>
<mask id="mask0" mask-type="alpha" maskUnits="userSpaceOnUse" x="0" y="0" width="295" height="162">
<rect width="295" height="162" rx="24" fill="white"/>
</mask>
<g mask="url(#mask0)">
<path d="M144 -114C144 -133.882 160.118 -150 180 -150H348C367.882 -150 384 -133.882 384 -114V54C384 73.8823 367.882 90 348 90H184C161.909 90 144 72.0914 144 50V-114Z" stroke="#040415" stroke-width="2"/>
<path d="M168 -87C168 -101.912 180.088 -114 195 -114H351C365.912 -114 378 -101.912 378 -87V39C378 53.9117 365.912 66 351 66H192C178.745 66 168 55.2548 168 42V-87Z" stroke="#040415" stroke-width="2"/>
<path d="M192 -71.75C192 -82.9338 201.066 -92 212.25 -92H329.75C340.934 -92 350 -82.9338 350 -71.75V21.75C350 32.9338 340.934 42 329.75 42H208C199.163 42 192 34.8366 192 26V-71.75Z" stroke="#040415" stroke-width="2"/>
<circle cx="247" cy="126" r="11" stroke="#040415" stroke-width="2"/>
<circle cx="259" cy="126" r="11" stroke="#040415" stroke-width="2"/>
<path d="M26.926 125.96L27.192 123.986L25.624 125.218L24.952 124.028L26.786 123.3L24.966 122.6L25.596 121.466L27.206 122.684L26.926 120.682H28.228L27.948 122.684L29.544 121.466L30.16 122.586L28.34 123.314L30.174 124.042L29.516 125.204L27.948 123.986L28.214 125.96H26.926ZM33.708 125.96L33.974 123.986L32.406 125.218L31.734 124.028L33.568 123.3L31.748 122.6L32.378 121.466L33.988 122.684L33.708 120.682H35.01L34.73 122.684L36.326 121.466L36.942 122.586L35.122 123.314L36.956 124.042L36.298 125.204L34.73 123.986L34.996 125.96H33.708ZM40.4901 125.96L40.7561 123.986L39.1881 125.218L38.5161 124.028L40.3501 123.3L38.5301 122.6L39.1601 121.466L40.7701 122.684L40.4901 120.682H41.7921L41.5121 122.684L43.1081 121.466L43.7241 122.586L41.9041 123.314L43.7381 124.042L43.0801 125.204L41.5121 123.986L41.7781 125.96H40.4901ZM47.2721 125.96L47.5381 123.986L45.9701 125.218L45.2981 124.028L47.1321 123.3L45.3121 122.6L45.9421 121.466L47.5521 122.684L47.2721 120.682H48.5741L48.2941 122.684L49.8901 121.466L50.5061 122.586L48.6861 123.314L50.5201 124.042L49.8621 125.204L48.2941 123.986L48.5601 125.96H47.2721ZM58.5741 131.168C57.9021 131.168 57.2954 131.051 56.7541 130.818C56.2127 130.575 55.7787 130.235 55.4521 129.796C55.1347 129.357 54.9761 128.849 54.9761 128.27C54.9761 127.673 55.1301 127.15 55.4381 126.702C55.7554 126.254 56.1707 125.932 56.6841 125.736C56.2361 125.54 55.8814 125.26 55.6201 124.896C55.3587 124.523 55.2281 124.107 55.2281 123.65C55.2281 123.183 55.3541 122.754 55.6061 122.362C55.8581 121.961 56.2314 121.639 56.7261 121.396C57.2301 121.153 57.8461 121.032 58.5741 121.032C59.3021 121.032 59.9134 121.153 60.4081 121.396C60.9027 121.639 61.2761 121.961 61.5281 122.362C61.7801 122.754 61.9061 123.183 61.9061 123.65C61.9061 124.098 61.7707 124.513 61.5001 124.896C61.2387 125.269 60.8887 125.549 60.4501 125.736C60.9727 125.932 61.3881 126.254 61.6961 126.702C62.0041 127.15 62.1581 127.673 62.1581 128.27C62.1581 128.849 61.9994 129.357 61.6821 129.796C61.3647 130.235 60.9307 130.575 60.3801 130.818C59.8387 131.051 59.2367 131.168 58.5741 131.168ZM58.5741 125.204C59.0594 125.204 59.4421 125.078 59.7221 124.826C60.0021 124.574 60.1421 124.252 60.1421 123.86C60.1421 123.431 60.0021 123.095 59.7221 122.852C59.4514 122.609 59.0687 122.488 58.5741 122.488C58.0701 122.488 57.6827 122.609 57.4121 122.852C57.1414 123.095 57.0061 123.431 57.0061 123.86C57.0061 124.261 57.1414 124.588 57.4121 124.84C57.6921 125.083 58.0794 125.204 58.5741 125.204ZM58.5741 129.67C59.1714 129.67 59.6241 129.525 59.9321 129.236C60.2401 128.937 60.3941 128.564 60.3941 128.116C60.3941 127.621 60.2307 127.234 59.9041 126.954C59.5867 126.674 59.1434 126.534 58.5741 126.534C58.0047 126.534 57.5521 126.674 57.2161 126.954C56.8894 127.234 56.7261 127.621 56.7261 128.116C56.7261 128.564 56.8801 128.937 57.1881 129.236C57.5054 129.525 57.9674 129.67 58.5741 129.67ZM67.0788 131.168C66.4068 131.168 65.8001 131.051 65.2588 130.818C64.7174 130.575 64.2834 130.235 63.9568 129.796C63.6394 129.357 63.4808 128.849 63.4808 128.27C63.4808 127.673 63.6348 127.15 63.9428 126.702C64.2601 126.254 64.6754 125.932 65.1888 125.736C64.7408 125.54 64.3861 125.26 64.1248 124.896C63.8634 124.523 63.7328 124.107 63.7328 123.65C63.7328 123.183 63.8588 122.754 64.1108 122.362C64.3628 121.961 64.7361 121.639 65.2308 121.396C65.7348 121.153 66.3508 121.032 67.0788 121.032C67.8068 121.032 68.4181 121.153 68.9128 121.396C69.4074 121.639 69.7808 121.961 70.0328 122.362C70.2848 122.754 70.4108 123.183 70.4108 123.65C70.4108 124.098 70.2754 124.513 70.0048 124.896C69.7434 125.269 69.3934 125.549 68.9548 125.736C69.4774 125.932 69.8928 126.254 70.2008 126.702C70.5088 127.15 70.6628 127.673 70.6628 128.27C70.6628 128.849 70.5041 129.357 70.1868 129.796C69.8694 130.235 69.4354 130.575 68.8848 130.818C68.3434 131.051 67.7414 131.168 67.0788 131.168ZM67.0788 125.204C67.5641 125.204 67.9468 125.078 68.2268 124.826C68.5068 124.574 68.6468 124.252 68.6468 123.86C68.6468 123.431 68.5068 123.095 68.2268 122.852C67.9561 122.609 67.5734 122.488 67.0788 122.488C66.5748 122.488 66.1874 122.609 65.9168 122.852C65.6461 123.095 65.5108 123.431 65.5108 123.86C65.5108 124.261 65.6461 124.588 65.9168 124.84C66.1968 125.083 66.5841 125.204 67.0788 125.204ZM67.0788 129.67C67.6761 129.67 68.1288 129.525 68.4368 129.236C68.7448 128.937 68.8988 128.564 68.8988 128.116C68.8988 127.621 68.7354 127.234 68.4088 126.954C68.0914 126.674 67.6481 126.534 67.0788 126.534C66.5094 126.534 66.0568 126.674 65.7208 126.954C65.3941 127.234 65.2308 127.621 65.2308 128.116C65.2308 128.564 65.3848 128.937 65.6928 129.236C66.0101 129.525 66.4721 129.67 67.0788 129.67ZM75.5834 131.168C74.9114 131.168 74.3048 131.051 73.7634 130.818C73.2221 130.575 72.7881 130.235 72.4614 129.796C72.1441 129.357 71.9854 128.849 71.9854 128.27C71.9854 127.673 72.1394 127.15 72.4474 126.702C72.7648 126.254 73.1801 125.932 73.6934 125.736C73.2454 125.54 72.8908 125.26 72.6294 124.896C72.3681 124.523 72.2374 124.107 72.2374 123.65C72.2374 123.183 72.3634 122.754 72.6154 122.362C72.8674 121.961 73.2408 121.639 73.7354 121.396C74.2394 121.153 74.8554 121.032 75.5834 121.032C76.3114 121.032 76.9228 121.153 77.4174 121.396C77.9121 121.639 78.2854 121.961 78.5374 122.362C78.7894 122.754 78.9154 123.183 78.9154 123.65C78.9154 124.098 78.7801 124.513 78.5094 124.896C78.2481 125.269 77.8981 125.549 77.4594 125.736C77.9821 125.932 78.3974 126.254 78.7054 126.702C79.0134 127.15 79.1674 127.673 79.1674 128.27C79.1674 128.849 79.0088 129.357 78.6914 129.796C78.3741 130.235 77.9401 130.575 77.3894 130.818C76.8481 131.051 76.2461 131.168 75.5834 131.168ZM75.5834 125.204C76.0688 125.204 76.4514 125.078 76.7314 124.826C77.0114 124.574 77.1514 124.252 77.1514 123.86C77.1514 123.431 77.0114 123.095 76.7314 122.852C76.4608 122.609 76.0781 122.488 75.5834 122.488C75.0794 122.488 74.6921 122.609 74.4214 122.852C74.1508 123.095 74.0154 123.431 74.0154 123.86C74.0154 124.261 74.1508 124.588 74.4214 124.84C74.7014 125.083 75.0888 125.204 75.5834 125.204ZM75.5834 129.67C76.1808 129.67 76.6334 129.525 76.9414 129.236C77.2494 128.937 77.4034 128.564 77.4034 128.116C77.4034 127.621 77.2401 127.234 76.9134 126.954C76.5961 126.674 76.1528 126.534 75.5834 126.534C75.0141 126.534 74.5614 126.674 74.2254 126.954C73.8988 127.234 73.7354 127.621 73.7354 128.116C73.7354 128.564 73.8894 128.937 74.1974 129.236C74.5148 129.525 74.9768 129.67 75.5834 129.67ZM84.0881 131.168C83.4161 131.168 82.8095 131.051 82.2681 130.818C81.7268 130.575 81.2928 130.235 80.9661 129.796C80.6488 129.357 80.4901 128.849 80.4901 128.27C80.4901 127.673 80.6441 127.15 80.9521 126.702C81.2695 126.254 81.6848 125.932 82.1981 125.736C81.7501 125.54 81.3955 125.26 81.1341 124.896C80.8728 124.523 80.7421 124.107 80.7421 123.65C80.7421 123.183 80.8681 122.754 81.1201 122.362C81.3721 121.961 81.7455 121.639 82.2401 121.396C82.7441 121.153 83.3601 121.032 84.0881 121.032C84.8161 121.032 85.4275 121.153 85.9221 121.396C86.4168 121.639 86.7901 121.961 87.0421 122.362C87.2941 122.754 87.4201 123.183 87.4201 123.65C87.4201 124.098 87.2848 124.513 87.0141 124.896C86.7528 125.269 86.4028 125.549 85.9641 125.736C86.4868 125.932 86.9021 126.254 87.2101 126.702C87.5181 127.15 87.6721 127.673 87.6721 128.27C87.6721 128.849 87.5135 129.357 87.1961 129.796C86.8788 130.235 86.4448 130.575 85.8941 130.818C85.3528 131.051 84.7508 131.168 84.0881 131.168ZM84.0881 125.204C84.5735 125.204 84.9561 125.078 85.2361 124.826C85.5161 124.574 85.6561 124.252 85.6561 123.86C85.6561 123.431 85.5161 123.095 85.2361 122.852C84.9655 122.609 84.5828 122.488 84.0881 122.488C83.5841 122.488 83.1968 122.609 82.9261 122.852C82.6555 123.095 82.5201 123.431 82.5201 123.86C82.5201 124.261 82.6555 124.588 82.9261 124.84C83.2061 125.083 83.5935 125.204 84.0881 125.204ZM84.0881 129.67C84.6855 129.67 85.1381 129.525 85.4461 129.236C85.7541 128.937 85.9081 128.564 85.9081 128.116C85.9081 127.621 85.7448 127.234 85.4181 126.954C85.1008 126.674 84.6575 126.534 84.0881 126.534C83.5188 126.534 83.0661 126.674 82.7301 126.954C82.4035 127.234 82.2401 127.621 82.2401 128.116C82.2401 128.564 82.3941 128.937 82.7021 129.236C83.0195 129.525 83.4815 129.67 84.0881 129.67Z" fill="#040415"/>
<path d="M30.336 83.088V81.24C28.784 81.064 27.52 80.52 26.544 79.608C25.568 78.696 25.064 77.472 25.032 75.936H28.272C28.304 76.576 28.496 77.136 28.848 77.616C29.216 78.096 29.712 78.424 30.336 78.6V73.536C30.192 73.488 30.04 73.44 29.88 73.392C29.736 73.344 29.584 73.296 29.424 73.248C28.128 72.8 27.136 72.224 26.448 71.52C25.776 70.816 25.44 69.88 25.44 68.712C25.424 67.336 25.872 66.232 26.784 65.4C27.696 64.552 28.88 64.064 30.336 63.936V61.992H31.944V63.96C33.384 64.104 34.544 64.608 35.424 65.472C36.32 66.32 36.792 67.416 36.84 68.76H33.552C33.536 68.296 33.384 67.872 33.096 67.488C32.824 67.088 32.44 66.808 31.944 66.648V71.112C32.072 71.16 32.2 71.208 32.328 71.256C32.456 71.288 32.584 71.328 32.712 71.376C33.544 71.664 34.304 72 34.992 72.384C35.68 72.768 36.232 73.28 36.648 73.92C37.064 74.544 37.272 75.352 37.272 76.344C37.272 77.176 37.064 77.952 36.648 78.672C36.248 79.392 35.648 79.992 34.848 80.472C34.064 80.936 33.096 81.2 31.944 81.264V83.088H30.336ZM28.656 68.496C28.656 69.008 28.808 69.424 29.112 69.744C29.416 70.048 29.824 70.312 30.336 70.536V66.552C29.84 66.648 29.432 66.864 29.112 67.2C28.808 67.536 28.656 67.968 28.656 68.496ZM34.008 76.56C34.008 75.92 33.816 75.416 33.432 75.048C33.048 74.68 32.552 74.368 31.944 74.112V78.672C32.584 78.576 33.088 78.344 33.456 77.976C33.824 77.608 34.008 77.136 34.008 76.56ZM45.0803 81.288C43.9283 81.288 42.8883 81.088 41.9603 80.688C41.0323 80.272 40.2883 79.688 39.7283 78.936C39.1843 78.184 38.9123 77.312 38.9123 76.32C38.9123 75.296 39.1763 74.4 39.7043 73.632C40.2483 72.864 40.9603 72.312 41.8403 71.976C41.0723 71.64 40.4643 71.16 40.0163 70.536C39.5683 69.896 39.3443 69.184 39.3443 68.4C39.3443 67.6 39.5603 66.864 39.9923 66.192C40.4243 65.504 41.0643 64.952 41.9123 64.536C42.7763 64.12 43.8323 63.912 45.0803 63.912C46.3283 63.912 47.3763 64.12 48.2243 64.536C49.0723 64.952 49.7123 65.504 50.1443 66.192C50.5763 66.864 50.7923 67.6 50.7923 68.4C50.7923 69.168 50.5603 69.88 50.0963 70.536C49.6483 71.176 49.0483 71.656 48.2963 71.976C49.1923 72.312 49.9043 72.864 50.4323 73.632C50.9603 74.4 51.2243 75.296 51.2243 76.32C51.2243 77.312 50.9523 78.184 50.4083 78.936C49.8643 79.688 49.1203 80.272 48.1763 80.688C47.2483 81.088 46.2163 81.288 45.0803 81.288ZM45.0803 71.064C45.9123 71.064 46.5683 70.848 47.0483 70.416C47.5283 69.984 47.7683 69.432 47.7683 68.76C47.7683 68.024 47.5283 67.448 47.0483 67.032C46.5843 66.616 45.9283 66.408 45.0803 66.408C44.2163 66.408 43.5523 66.616 43.0883 67.032C42.6243 67.448 42.3923 68.024 42.3923 68.76C42.3923 69.448 42.6243 70.008 43.0883 70.44C43.5683 70.856 44.2323 71.064 45.0803 71.064ZM45.0803 78.72C46.1043 78.72 46.8803 78.472 47.4083 77.976C47.9363 77.464 48.2003 76.824 48.2003 76.056C48.2003 75.208 47.9203 74.544 47.3603 74.064C46.8163 73.584 46.0563 73.344 45.0803 73.344C44.1043 73.344 43.3283 73.584 42.7523 74.064C42.1923 74.544 41.9123 75.208 41.9123 76.056C41.9123 76.824 42.1763 77.464 42.7043 77.976C43.2483 78.472 44.0403 78.72 45.0803 78.72ZM58.9421 81.288C57.8381 81.288 56.8381 81.096 55.9421 80.712C55.0461 80.312 54.3261 79.704 53.7821 78.888C53.2381 78.072 52.9501 77.048 52.9181 75.816H55.9421C55.9581 76.632 56.2221 77.32 56.7341 77.88C57.2621 78.424 57.9981 78.696 58.9421 78.696C59.8381 78.696 60.5261 78.448 61.0061 77.952C61.4861 77.456 61.7261 76.832 61.7261 76.08C61.7261 75.2 61.4061 74.536 60.7661 74.088C60.1421 73.624 59.3341 73.392 58.3421 73.392H57.0941V70.872H58.3661C59.1821 70.872 59.8621 70.68 60.4061 70.296C60.9501 69.912 61.2221 69.344 61.2221 68.592C61.2221 67.968 61.0141 67.472 60.5981 67.104C60.1981 66.72 59.6381 66.528 58.9181 66.528C58.1341 66.528 57.5181 66.76 57.0701 67.224C56.6381 67.688 56.3981 68.256 56.3501 68.928H53.3501C53.4141 67.376 53.9501 66.152 54.9581 65.256C55.9821 64.36 57.3021 63.912 58.9181 63.912C60.0701 63.912 61.0381 64.12 61.8221 64.536C62.6221 64.936 63.2221 65.472 63.6221 66.144C64.0381 66.816 64.2461 67.56 64.2461 68.376C64.2461 69.32 63.9821 70.12 63.4541 70.776C62.9421 71.416 62.3021 71.848 61.5341 72.072C62.4781 72.264 63.2461 72.728 63.8381 73.464C64.4301 74.184 64.7261 75.096 64.7261 76.2C64.7261 77.128 64.5021 77.976 64.0541 78.744C63.6061 79.512 62.9501 80.128 62.0861 80.592C61.2381 81.056 60.1901 81.288 58.9421 81.288ZM72.9669 81.288C71.7349 81.288 70.6709 81.072 69.7749 80.64C68.8949 80.208 68.1989 79.616 67.6869 78.864C67.1909 78.096 66.9029 77.232 66.8229 76.272H69.8229C69.9669 76.96 70.3189 77.536 70.8789 78C71.4389 78.448 72.1349 78.672 72.9669 78.672C73.8629 78.672 74.5909 78.344 75.1509 77.688C75.7269 77.032 76.0149 76.216 76.0149 75.24C76.0149 74.232 75.7269 73.432 75.1509 72.84C74.5909 72.248 73.8789 71.952 73.0149 71.952C72.2949 71.952 71.6709 72.128 71.1429 72.48C70.6149 72.832 70.2389 73.272 70.0149 73.8H67.0629L68.5029 64.2H77.8149V66.888H70.8069L70.0389 70.776C70.3909 70.392 70.8709 70.08 71.4789 69.84C72.0869 69.584 72.7669 69.456 73.5189 69.456C74.7189 69.456 75.7189 69.728 76.5189 70.272C77.3189 70.8 77.9269 71.504 78.3429 72.384C78.7589 73.248 78.9669 74.192 78.9669 75.216C78.9669 76.384 78.7109 77.424 78.1989 78.336C77.7029 79.248 76.9989 79.968 76.0869 80.496C75.1909 81.024 74.1509 81.288 72.9669 81.288Z" fill="#040415"/>
<path d="M81.3137 81.112C80.9404 81.112 80.6311 80.9947 80.3857 80.76C80.1511 80.5253 80.0337 80.2427 80.0337 79.912C80.0337 79.5707 80.1511 79.2827 80.3857 79.048C80.6311 78.8133 80.9404 78.696 81.3137 78.696C81.6871 78.696 81.9911 78.8133 82.2257 79.048C82.4711 79.2827 82.5937 79.5707 82.5937 79.912C82.5937 80.2427 82.4711 80.5253 82.2257 80.76C81.9911 80.9947 81.6871 81.112 81.3137 81.112ZM87.5158 81.192C86.6731 81.192 85.9638 81.0373 85.3878 80.728C84.8118 80.4187 84.3478 80.0027 83.9958 79.48C83.6438 78.9573 83.3878 78.376 83.2278 77.736C83.0785 77.096 83.0038 76.44 83.0038 75.768C83.0038 74.52 83.1798 73.4373 83.5318 72.52C83.8838 71.592 84.3905 70.8773 85.0518 70.376C85.7131 69.864 86.5131 69.608 87.4518 69.608C88.2198 69.608 88.8705 69.7627 89.4038 70.072C89.9478 70.3707 90.3691 70.7653 90.6678 71.256C90.9665 71.7467 91.1425 72.2747 91.1958 72.84H89.2918C89.1958 72.3493 88.9878 71.9707 88.6678 71.704C88.3478 71.4373 87.9371 71.304 87.4358 71.304C86.7211 71.304 86.1451 71.6347 85.7078 72.296C85.2705 72.9467 85.0358 73.944 85.0038 75.288C85.2598 74.8507 85.6438 74.488 86.1558 74.2C86.6678 73.912 87.2385 73.768 87.8678 73.768C88.4865 73.768 89.0678 73.9173 89.6118 74.216C90.1558 74.5147 90.5931 74.936 90.9238 75.48C91.2651 76.024 91.4358 76.664 91.4358 77.4C91.4358 78.072 91.2705 78.696 90.9398 79.272C90.6198 79.848 90.1611 80.312 89.5638 80.664C88.9771 81.016 88.2945 81.192 87.5158 81.192ZM87.4038 79.432C88.0011 79.432 88.4918 79.2507 88.8758 78.888C89.2705 78.5147 89.4678 78.0453 89.4678 77.48C89.4678 76.8827 89.2705 76.4027 88.8758 76.04C88.4811 75.6773 87.9798 75.496 87.3718 75.496C86.9771 75.496 86.6198 75.5867 86.2998 75.768C85.9905 75.9387 85.7451 76.1733 85.5638 76.472C85.3825 76.76 85.2918 77.0853 85.2918 77.448C85.2918 78.024 85.4891 78.4987 85.8838 78.872C86.2891 79.2453 86.7958 79.432 87.4038 79.432ZM98.0351 81V78.92H92.5151V77.288L97.7631 69.8H100.083V77.144H101.555V78.92H100.083V81H98.0351ZM94.7071 77.144H98.1631V72.056L94.7071 77.144Z" fill="#040415" fill-opacity="0.4"/>
<g opacity="0.4">
<path d="M25.036 41V31.2H28.48C29.1707 31.2 29.74 31.312 30.188 31.536C30.6453 31.7507 30.986 32.0493 31.21 32.432C31.434 32.8053 31.546 33.2253 31.546 33.692C31.546 34.3267 31.3733 34.826 31.028 35.19C30.692 35.554 30.286 35.806 29.81 35.946C30.174 36.0113 30.5053 36.156 30.804 36.38C31.1027 36.604 31.336 36.884 31.504 37.22C31.6813 37.556 31.77 37.9247 31.77 38.326C31.77 38.8207 31.6487 39.2733 31.406 39.684C31.1633 40.0853 30.804 40.4073 30.328 40.65C29.852 40.8833 29.2733 41 28.592 41H25.036ZM26.212 35.484H28.396C29.0213 35.484 29.502 35.3393 29.838 35.05C30.174 34.7513 30.342 34.3407 30.342 33.818C30.342 33.3233 30.174 32.9267 29.838 32.628C29.5113 32.3293 29.0167 32.18 28.354 32.18H26.212V35.484ZM26.212 40.02H28.466C29.138 40.02 29.656 39.866 30.02 39.558C30.384 39.2407 30.566 38.802 30.566 38.242C30.566 37.6913 30.3747 37.2527 29.992 36.926C29.6093 36.59 29.0913 36.422 28.438 36.422H26.212V40.02ZM35.3979 41.168C34.8192 41.168 34.3385 41.07 33.9559 40.874C33.5732 40.678 33.2885 40.4167 33.1019 40.09C32.9152 39.7633 32.8219 39.4087 32.8219 39.026C32.8219 38.3167 33.0925 37.7707 33.6339 37.388C34.1752 37.0053 34.9125 36.814 35.8459 36.814H37.7219V36.73C37.7219 36.1233 37.5632 35.666 37.2459 35.358C36.9285 35.0407 36.5039 34.882 35.9719 34.882C35.5145 34.882 35.1179 34.9987 34.7819 35.232C34.4552 35.456 34.2499 35.7873 34.1659 36.226H32.9619C33.0085 35.722 33.1765 35.2973 33.4659 34.952C33.7645 34.6067 34.1332 34.3453 34.5719 34.168C35.0105 33.9813 35.4772 33.888 35.9719 33.888C36.9425 33.888 37.6705 34.1493 38.1559 34.672C38.6505 35.1853 38.8979 35.8713 38.8979 36.73V41H37.8479L37.7779 39.754C37.5819 40.146 37.2925 40.482 36.9099 40.762C36.5365 41.0327 36.0325 41.168 35.3979 41.168ZM35.5799 40.174C36.0279 40.174 36.4105 40.0573 36.7279 39.824C37.0545 39.5907 37.3019 39.2873 37.4699 38.914C37.6379 38.5407 37.7219 38.1487 37.7219 37.738V37.724H35.9439C35.2532 37.724 34.7632 37.8453 34.4739 38.088C34.1939 38.3213 34.0539 38.6153 34.0539 38.97C34.0539 39.334 34.1845 39.628 34.4459 39.852C34.7165 40.0667 35.0945 40.174 35.5799 40.174ZM40.3621 41V30.92H41.5381V41H40.3621ZM45.4756 41.168C44.8969 41.168 44.4163 41.07 44.0336 40.874C43.6509 40.678 43.3663 40.4167 43.1796 40.09C42.9929 39.7633 42.8996 39.4087 42.8996 39.026C42.8996 38.3167 43.1703 37.7707 43.7116 37.388C44.2529 37.0053 44.9903 36.814 45.9236 36.814H47.7996V36.73C47.7996 36.1233 47.6409 35.666 47.3236 35.358C47.0063 35.0407 46.5816 34.882 46.0496 34.882C45.5923 34.882 45.1956 34.9987 44.8596 35.232C44.5329 35.456 44.3276 35.7873 44.2436 36.226H43.0396C43.0863 35.722 43.2543 35.2973 43.5436 34.952C43.8423 34.6067 44.2109 34.3453 44.6496 34.168C45.0883 33.9813 45.5549 33.888 46.0496 33.888C47.0203 33.888 47.7483 34.1493 48.2336 34.672C48.7283 35.1853 48.9756 35.8713 48.9756 36.73V41H47.9256L47.8556 39.754C47.6596 40.146 47.3703 40.482 46.9876 40.762C46.6143 41.0327 46.1103 41.168 45.4756 41.168ZM45.6576 40.174C46.1056 40.174 46.4883 40.0573 46.8056 39.824C47.1323 39.5907 47.3796 39.2873 47.5476 38.914C47.7156 38.5407 47.7996 38.1487 47.7996 37.738V37.724H46.0216C45.3309 37.724 44.8409 37.8453 44.5516 38.088C44.2716 38.3213 44.1316 38.6153 44.1316 38.97C44.1316 39.334 44.2623 39.628 44.5236 39.852C44.7943 40.0667 45.1723 40.174 45.6576 40.174ZM50.4398 41V34.056H51.5038L51.5738 35.302C51.7978 34.8633 52.1198 34.518 52.5398 34.266C52.9598 34.014 53.4358 33.888 53.9678 33.888C54.7892 33.888 55.4425 34.14 55.9278 34.644C56.4225 35.1387 56.6698 35.904 56.6698 36.94V41H55.4938V37.066C55.4938 35.6193 54.8965 34.896 53.7018 34.896C53.1045 34.896 52.6052 35.1153 52.2038 35.554C51.8118 35.9833 51.6158 36.5993 51.6158 37.402V41H50.4398ZM61.3435 41.168C60.6809 41.168 60.0835 41.0187 59.5515 40.72C59.0289 40.412 58.6135 39.9873 58.3055 39.446C58.0069 38.8953 57.8575 38.256 57.8575 37.528C57.8575 36.8 58.0069 36.1653 58.3055 35.624C58.6135 35.0733 59.0289 34.6487 59.5515 34.35C60.0835 34.042 60.6809 33.888 61.3435 33.888C62.1649 33.888 62.8555 34.1027 63.4155 34.532C63.9849 34.9613 64.3442 35.5353 64.4935 36.254H63.2895C63.1962 35.8247 62.9675 35.4933 62.6035 35.26C62.2395 35.0173 61.8149 34.896 61.3295 34.896C60.9375 34.896 60.5689 34.994 60.2235 35.19C59.8782 35.386 59.5982 35.68 59.3835 36.072C59.1689 36.464 59.0615 36.9493 59.0615 37.528C59.0615 38.1067 59.1689 38.592 59.3835 38.984C59.5982 39.376 59.8782 39.6747 60.2235 39.88C60.5689 40.076 60.9375 40.174 61.3295 40.174C61.8149 40.174 62.2395 40.0573 62.6035 39.824C62.9675 39.5813 63.1962 39.2407 63.2895 38.802H64.4935C64.3535 39.502 63.9989 40.0713 63.4295 40.51C62.8602 40.9487 62.1649 41.168 61.3435 41.168ZM68.9579 41.168C68.2953 41.168 67.7073 41.0187 67.1939 40.72C66.6806 40.412 66.2746 39.9873 65.9759 39.446C65.6866 38.9047 65.5419 38.2653 65.5419 37.528C65.5419 36.8 65.6866 36.1653 65.9759 35.624C66.2653 35.0733 66.6666 34.6487 67.1799 34.35C67.7026 34.042 68.3046 33.888 68.9859 33.888C69.6579 33.888 70.2366 34.042 70.7219 34.35C71.2166 34.6487 71.5946 35.0453 71.8559 35.54C72.1173 36.0347 72.2479 36.5667 72.2479 37.136C72.2479 37.2387 72.2433 37.3413 72.2339 37.444C72.2339 37.5467 72.2339 37.6633 72.2339 37.794H66.7039C66.7319 38.326 66.8533 38.7693 67.0679 39.124C67.2919 39.4693 67.5673 39.7307 67.8939 39.908C68.2299 40.0853 68.5846 40.174 68.9579 40.174C69.4433 40.174 69.8493 40.062 70.1759 39.838C70.5026 39.614 70.7406 39.3107 70.8899 38.928H72.0519C71.8653 39.572 71.5059 40.1087 70.9739 40.538C70.4513 40.958 69.7793 41.168 68.9579 41.168ZM68.9579 34.882C68.3979 34.882 67.8986 35.0547 67.4599 35.4C67.0306 35.736 66.7833 36.2307 66.7179 36.884H71.0859C71.0579 36.2587 70.8433 35.7687 70.4419 35.414C70.0406 35.0593 69.5459 34.882 68.9579 34.882Z" fill="#040415"/>
</g>
</g>
</svg>
