<svg width="16" height="16" viewBox="0 0 16 16" fill="none" xmlns="http://www.w3.org/2000/svg">
<path fill-rule="evenodd" clip-rule="evenodd" d="M11 0C9.89543 0 9 0.89543 9 2V5C9 6.10457 9.89543 7 11 7H14C15.1046 7 16 6.10457 16 5V2C16 0.895431 15.1046 0 14 0H11ZM2 9C0.895431 9 0 9.89543 0 11V14C0 15.1046 0.89543 16 2 16H5C6.10457 16 7 15.1046 7 14V11C7 9.89543 6.10457 9 5 9H2ZM9 11C9 9.89543 9.89543 9 11 9H14C15.1046 9 16 9.89543 16 11V14C16 15.1046 15.1046 16 14 16H11C9.89543 16 9 15.1046 9 14V11ZM2 0C0.895431 0 0 0.89543 0 2V5C0 6.10457 0.89543 7 2 7H5C6.10457 7 7 6.10457 7 5V2C7 0.895431 6.10457 0 5 0H2Z" />
</svg>