<svg width="20" height="20" viewBox="0 0 20 20" fill="none" xmlns="http://www.w3.org/2000/svg">
<path fill-rule="evenodd" clip-rule="evenodd" d="M19.2301 12.3701C19.036 12.0701 18.76 11.7701 18.4023 11.5801C18.1162 11.4401 17.9322 11.2101 17.7687 10.9401C17.2475 10.0801 17.5541 8.95011 18.4228 8.44011C19.4447 7.87011 19.7718 6.60011 19.179 5.61011L18.4943 4.43011C17.9118 3.44011 16.6344 3.09011 15.6226 3.67011C14.7233 4.15011 13.5685 3.83011 13.0473 2.98011C12.8838 2.70011 12.7918 2.40011 12.8122 2.10011C12.8429 1.71011 12.7203 1.34011 12.5363 1.04011C12.1582 0.420107 11.4735 0.000106812 10.7172 0.000106812H9.27627C8.53024 0.0201068 7.84553 0.420107 7.4674 1.04011C7.27323 1.34011 7.16081 1.71011 7.18125 2.10011C7.20169 2.40011 7.10972 2.70011 6.9462 2.98011C6.425 3.83011 5.27019 4.15011 4.38109 3.67011C3.35913 3.09011 2.09191 3.44011 1.49917 4.43011L0.814459 5.61011C0.231943 6.60011 0.55897 7.87011 1.57071 8.44011C2.43937 8.95011 2.74596 10.0801 2.23498 10.9401C2.06125 11.2101 1.87729 11.4401 1.59115 11.5801C1.24368 11.7701 0.937094 12.0701 0.773581 12.3701C0.395456 12.9901 0.415896 13.7701 0.79402 14.4201L1.49917 15.6201C1.87729 16.2601 2.58245 16.6601 3.31825 16.6601C3.66572 16.6601 4.0745 16.5601 4.40153 16.3601C4.65702 16.1901 4.96361 16.1301 5.30085 16.1301C6.31259 16.1301 7.16081 16.9601 7.18125 17.9501C7.18125 19.1001 8.12145 20.0001 9.30692 20.0001H10.6968C11.872 20.0001 12.8122 19.1001 12.8122 17.9501C12.8429 16.9601 13.6911 16.1301 14.7029 16.1301C15.0299 16.1301 15.3365 16.1901 15.6022 16.3601C15.9292 16.5601 16.3278 16.6601 16.6855 16.6601C17.411 16.6601 18.1162 16.2601 18.4943 15.6201L19.2097 14.4201C19.5776 13.7501 19.6083 12.9901 19.2301 12.3701Z" fill="inherit"  fill-opacity="0.2"/>
<path fill-rule="evenodd" clip-rule="evenodd" d="M10.012 12.8301C8.40751 12.8301 7.10962 11.5801 7.10962 10.0101C7.10962 8.4401 8.40751 7.1801 10.012 7.1801C11.6165 7.1801 12.8837 8.4401 12.8837 10.0101C12.8837 11.5801 11.6165 12.8301 10.012 12.8301Z" fill="inherit" />
</svg>
